<svg xmlns="http://www.w3.org/2000/svg" width="512" height="512" viewBox="0 0 512 512" version="1.1"><path d="M 405.527 117.139 C 389.443 119.414, 376.844 131.962, 373.908 148.629 C 371.095 164.600, 380.378 181.510, 396 188.872 C 400.700 191.087, 402.881 191.466, 411 191.482 C 419.375 191.498, 421.237 191.160, 426.722 188.626 C 434.346 185.104, 442.033 177.301, 445.804 169.253 C 448.145 164.257, 448.498 162.251, 448.482 154 C 448.466 145.852, 448.088 143.692, 445.822 138.825 C 442.348 131.365, 436.354 124.998, 429.252 121.225 C 424.171 118.525, 421.716 117.803, 413.500 116.589 C 412.400 116.427, 408.812 116.674, 405.527 117.139 M 90.500 119 C 79.133 122.799, 70.963 131.011, 66.791 142.832 C 65.222 147.276, 64.881 150.260, 65.211 156.655 C 65.976 171.485, 73.696 182.644, 87.820 189.335 C 93.784 192.161, 95.467 192.500, 103.521 192.500 C 111.673 192.500, 113.177 192.188, 119.126 189.259 C 140.332 178.819, 147.460 152.627, 134.355 133.304 C 130.203 127.182, 126.079 123.842, 118.235 120.248 C 110.422 116.667, 99.017 116.154, 90.500 119 M 103.204 129.570 C 100.583 131.405, 100.364 134.222, 102.663 136.521 C 104.929 138.787, 104.656 150.918, 102.298 152.719 C 100.041 154.444, 95.242 151.472, 93.468 147.250 C 91.849 143.398, 87.759 142.714, 86 146 C 84.038 149.665, 87.651 153.681, 91.246 151.832 C 93.894 150.470, 99 154.607, 99 158.115 C 99 160.399, 98.051 161.396, 93.285 164.123 C 89.798 166.118, 86.439 167.306, 84.668 167.171 C 79.252 166.759, 76.965 171.461, 81.155 174.396 C 83.799 176.248, 86.709 175.007, 87.547 171.670 C 87.911 170.217, 90.211 168.246, 93.921 166.207 C 99.518 163.129, 99.836 163.072, 102.862 164.581 C 105.619 165.956, 106.350 165.972, 108.876 164.712 C 111.290 163.507, 112.255 163.488, 114.876 164.590 C 116.593 165.312, 118.517 167.041, 119.151 168.432 C 120.524 171.446, 123.531 172.634, 125.548 170.960 C 128.811 168.252, 126.491 164, 121.750 164 C 117.130 164, 113.346 161.482, 112.637 157.935 C 112.111 155.305, 112.452 154.428, 114.693 152.641 C 119.820 148.555, 120.352 148.279, 122.176 148.756 C 126.156 149.797, 128.803 143.741, 125.548 141.040 C 123.244 139.128, 120.639 140.227, 118.812 143.883 C 116.322 148.868, 111.880 153.127, 109.525 152.790 C 107.757 152.537, 107.436 151.570, 107 145.177 C 106.578 138.996, 106.780 137.600, 108.294 136.232 C 110.525 134.215, 110.151 131.159, 107.454 129.378 C 105.713 128.228, 105.078 128.257, 103.204 129.570 M 188 130.752 C 181.124 134.186, 181.003 134.980, 181.002 176.750 L 181 214 169.750 214.006 C 163.563 214.009, 156.813 214.480, 154.752 215.052 C 147.692 217.013, 148 213.374, 148 294.950 L 148 368 256 368 L 364 368 364 294.516 L 364 221.032 361.083 217.766 L 358.166 214.500 344.083 214.154 L 330 213.808 330 191.591 L 330 169.374 327.195 166.687 C 324.397 164.006, 324.356 164, 308.806 164 C 287.522 164, 288.599 165.014, 288.180 144.591 L 287.859 129 239.680 129.002 C 195.814 129.003, 191.187 129.160, 188 130.752 M 403 138.500 L 403 146 398 146 L 393 146 393 159.300 C 393 168.311, 393.387 172.987, 394.200 173.800 C 395.880 175.480, 426.120 175.480, 427.800 173.800 C 428.631 172.969, 429 167.804, 429 157.016 L 429 141.432 423.719 136.216 L 418.437 131 410.719 131 L 403 131 403 138.500 M 395.446 141.087 C 395.077 141.685, 395.275 142.675, 395.887 143.287 C 396.704 144.104, 397 143.815, 397 142.200 C 397 139.785, 396.481 139.413, 395.446 141.087 M 405.250 149.739 C 408.413 149.937, 413.587 149.937, 416.750 149.739 C 419.913 149.541, 417.325 149.378, 411 149.378 C 404.675 149.378, 402.087 149.541, 405.250 149.739 M 405.250 151.739 C 408.413 151.937, 413.587 151.937, 416.750 151.739 C 419.913 151.541, 417.325 151.378, 411 151.378 C 404.675 151.378, 402.087 151.541, 405.250 151.739 M 405.250 157.739 C 408.413 157.937, 413.587 157.937, 416.750 157.739 C 419.913 157.541, 417.325 157.378, 411 157.378 C 404.675 157.378, 402.087 157.541, 405.250 157.739 M 405.250 159.739 C 408.413 159.937, 413.587 159.937, 416.750 159.739 C 419.913 159.541, 417.325 159.378, 411 159.378 C 404.675 159.378, 402.087 159.541, 405.250 159.739 M 399.515 165.975 C 399.162 166.547, 399.495 167.253, 400.254 167.544 C 402.662 168.468, 421.997 167.550, 422.255 166.500 C 422.595 165.114, 400.365 164.601, 399.515 165.975 M 405.250 166.739 C 408.413 166.937, 413.587 166.937, 416.750 166.739 C 419.913 166.541, 417.325 166.378, 411 166.378 C 404.675 166.378, 402.087 166.541, 405.250 166.739 M 212.667 206.667 C 211.431 207.903, 211.988 210.781, 213.582 211.393 C 214.452 211.727, 233.747 212, 256.459 212 C 291.790 212, 297.933 211.785, 298.989 210.513 C 299.668 209.695, 299.963 208.345, 299.643 207.513 C 299.138 206.195, 293.538 206, 256.198 206 C 232.622 206, 213.033 206.300, 212.667 206.667 M 156.115 223.361 C 155.295 224.350, 155.056 243.294, 155.243 292.611 L 155.500 360.500 256 360.500 L 356.500 360.500 356.776 293.500 C 356.928 256.650, 356.806 225.488, 356.507 224.250 C 355.976 222.060, 355.615 222, 342.981 222 L 330 222 330 271.099 C 330 324.761, 330.003 324.727, 324.164 328.691 C 321.660 330.391, 317.517 330.500, 255.331 330.500 L 189.161 330.500 186.452 328 C 180.993 322.964, 181 323.036, 181 270.532 L 181 222 169.122 222 C 160.324 222, 156.952 222.353, 156.115 223.361 M 212.362 223.500 C 212.045 224.325, 212.045 225.675, 212.362 226.500 C 213.230 228.762, 297.122 228.762, 299 226.500 C 299.993 225.303, 299.993 224.697, 299 223.500 C 297.929 222.210, 291.823 222, 255.346 222 C 218.572 222, 212.861 222.199, 212.362 223.500 M 212.667 238.667 C 211.431 239.903, 211.988 242.781, 213.582 243.393 C 214.452 243.727, 233.747 244, 256.459 244 C 291.947 244, 297.930 243.789, 299 242.500 C 299.993 241.303, 299.993 240.697, 299 239.500 C 297.929 238.210, 291.845 238, 255.544 238 C 232.328 238, 213.033 238.300, 212.667 238.667 M 212.357 255.513 C 212.037 256.345, 212.332 257.695, 213.011 258.513 C 214.794 260.661, 295.590 260.752, 298.521 258.608 C 300.138 257.426, 300.224 256.975, 299.090 255.608 C 297.902 254.177, 293.091 254, 255.346 254 C 218.413 254, 212.862 254.195, 212.357 255.513 M 91.407 259.031 C 69.225 263.428, 56.085 287.210, 64.074 308.500 C 67.194 316.817, 76.190 325.810, 84.500 328.922 C 93.017 332.110, 106.039 331.627, 114.196 327.819 C 121.456 324.430, 128.420 317.470, 131.830 310.196 C 134.181 305.181, 134.494 303.304, 134.454 294.500 C 134.398 282.536, 132.596 277.690, 125.302 269.891 C 119.689 263.891, 113.647 260.591, 105.526 259.089 C 98.939 257.872, 97.287 257.865, 91.407 259.031 M 406.357 268.068 C 394.544 269.647, 384.008 277.177, 378.792 287.768 C 375.767 293.912, 375.500 295.225, 375.500 303.992 C 375.500 312.749, 375.769 314.076, 378.781 320.200 C 393.319 349.757, 437.223 346.942, 447.570 315.789 C 450.092 308.198, 449.193 295.135, 445.679 288.287 C 438.040 273.401, 423.271 265.807, 406.357 268.068 M 212.306 271.645 C 210.734 275.741, 213.331 276, 256 276 C 289.123 276, 296.969 275.743, 298.521 274.608 C 300.138 273.426, 300.224 272.975, 299.090 271.608 C 297.902 270.177, 293.091 270, 255.346 270 C 216.915 270, 212.878 270.154, 212.306 271.645 M 88.014 273.974 C 86.948 275.966, 87.176 276, 101.465 276 L 116 276 116 293.500 C 116 304.500, 116.371 311, 117 311 C 117.624 311, 118.056 304.233, 118.150 293 C 118.233 283.100, 118.345 274.438, 118.400 273.750 C 118.475 272.814, 114.812 272.431, 103.799 272.224 C 89.910 271.962, 89.039 272.059, 88.014 273.974 M 95.750 274.743 C 99.737 274.932, 106.263 274.932, 110.250 274.743 C 114.237 274.553, 110.975 274.397, 103 274.397 C 95.025 274.397, 91.763 274.553, 95.750 274.743 M 76 298.452 L 76 319 91.350 319 L 106.701 319 107.350 309.846 C 108.483 293.886, 108.187 285.400, 106.445 283.955 C 105.590 283.245, 104.407 281.727, 103.816 280.582 C 102.990 278.984, 103.522 279.197, 106.105 281.500 C 107.965 283.159, 108.624 283.495, 107.579 282.250 C 105.697 280.008, 105.700 280, 108.318 280 L 110.945 280 110.775 297.498 C 110.675 307.825, 110.994 315.099, 111.553 315.248 C 112.117 315.398, 112.610 307.928, 112.772 296.750 L 113.044 278 109.522 278 C 107.585 278, 106 278.505, 106 279.122 C 106 279.899, 105.615 279.930, 104.750 279.222 C 104.054 278.652, 97.407 278.133, 89.750 278.051 L 76 277.904 76 298.452 M 393 305.155 L 393 325.227 397.250 324.656 C 399.587 324.343, 404.875 323.800, 409 323.450 L 416.500 322.814 416.206 304.859 C 415.994 291.932, 415.574 286.800, 414.706 286.535 C 414.043 286.333, 408.887 285.923, 403.250 285.625 L 393 285.084 393 305.155 M 423.250 288.721 L 418 289.105 418 296.017 C 418 301.744, 418.320 303.101, 419.869 303.930 C 421.697 304.908, 423 304.465, 423 302.865 C 423 302.424, 422.325 302.322, 421.500 302.638 C 420.550 303.003, 420 302.625, 420 301.607 C 420 300.581, 420.861 300, 422.382 300 C 424.485 300, 424.771 300.468, 424.819 304 C 424.868 307.491, 424.590 308, 422.637 308 C 421.407 308, 419.837 307.438, 419.149 306.750 C 418.148 305.750, 417.958 306.898, 418.199 312.500 L 418.500 319.500 425.776 319.794 L 433.051 320.089 432.776 304.294 C 432.464 286.419, 433.417 287.977, 423.250 288.721 M 85.201 293.028 C 80.292 297.601, 81.278 304.408, 87.274 307.341 C 90.343 308.843, 91.613 308.982, 94.155 308.096 C 97.636 306.882, 99.920 304.389, 99.968 301.750 C 99.994 300.315, 99.145 300.013, 95.250 300.070 C 92.188 300.116, 91.156 300.399, 92.347 300.867 C 93.997 301.517, 94.029 301.731, 92.645 302.880 C 90.684 304.507, 88.036 304.011, 86.612 301.750 C 85.044 299.260, 86.988 296.567, 90.601 296.226 C 98.306 295.497, 99.881 294.178, 95.453 292.161 C 91.632 290.419, 87.638 290.757, 85.201 293.028 M 399.881 298.007 C 396.975 299.705, 395.583 304.579, 397.016 308.038 C 398.527 311.686, 400.716 313, 405.279 313 C 408.890 313, 411.281 311.083, 412.449 307.250 C 413.054 305.266, 412.782 305, 410.149 305 C 408.507 305, 406.452 304.727, 405.582 304.393 C 404.712 304.059, 404 304.240, 404 304.795 C 404 305.350, 405.350 306.275, 407 306.850 C 410.415 308.041, 410.896 309.532, 408.100 310.264 C 402.211 311.804, 397.564 307.447, 399.818 302.500 C 400.813 300.316, 401.593 300, 405.979 300 C 411.168 300, 412.701 298.689, 408.750 297.630 C 405.497 296.758, 401.745 296.918, 399.881 298.007" stroke="none" fill="#366393" fill-rule="evenodd"/><path d="M 0 256.002 L 0 512.004 256.250 511.752 L 512.500 511.500 512.752 255.750 L 513.004 0 256.502 0 L 0 0 0 256.002 M 0.492 256.500 C 0.492 397.300, 0.608 454.751, 0.750 384.170 C 0.892 313.588, 0.892 198.388, 0.750 128.170 C 0.608 57.951, 0.492 115.700, 0.492 256.500 M 405.527 117.139 C 389.443 119.414, 376.844 131.962, 373.908 148.629 C 371.095 164.600, 380.378 181.510, 396 188.872 C 400.700 191.087, 402.881 191.466, 411 191.482 C 419.375 191.498, 421.237 191.160, 426.722 188.626 C 434.346 185.104, 442.033 177.301, 445.804 169.253 C 448.145 164.257, 448.498 162.251, 448.482 154 C 448.466 145.852, 448.088 143.692, 445.822 138.825 C 442.348 131.365, 436.354 124.998, 429.252 121.225 C 424.171 118.525, 421.716 117.803, 413.500 116.589 C 412.400 116.427, 408.812 116.674, 405.527 117.139 M 90.500 119 C 79.133 122.799, 70.963 131.011, 66.791 142.832 C 65.222 147.276, 64.881 150.260, 65.211 156.655 C 65.976 171.485, 73.696 182.644, 87.820 189.335 C 93.784 192.161, 95.467 192.500, 103.521 192.500 C 111.673 192.500, 113.177 192.188, 119.126 189.259 C 140.332 178.819, 147.460 152.627, 134.355 133.304 C 130.203 127.182, 126.079 123.842, 118.235 120.248 C 110.422 116.667, 99.017 116.154, 90.500 119 M 103.204 129.570 C 100.583 131.405, 100.364 134.222, 102.663 136.521 C 104.929 138.787, 104.656 150.918, 102.298 152.719 C 100.041 154.444, 95.242 151.472, 93.468 147.250 C 91.849 143.398, 87.759 142.714, 86 146 C 84.038 149.665, 87.651 153.681, 91.246 151.832 C 93.894 150.470, 99 154.607, 99 158.115 C 99 160.399, 98.051 161.396, 93.285 164.123 C 89.798 166.118, 86.439 167.306, 84.668 167.171 C 79.252 166.759, 76.965 171.461, 81.155 174.396 C 83.799 176.248, 86.709 175.007, 87.547 171.670 C 87.911 170.217, 90.211 168.246, 93.921 166.207 C 99.518 163.129, 99.836 163.072, 102.862 164.581 C 105.619 165.956, 106.350 165.972, 108.876 164.712 C 111.290 163.507, 112.255 163.488, 114.876 164.590 C 116.593 165.312, 118.517 167.041, 119.151 168.432 C 120.524 171.446, 123.531 172.634, 125.548 170.960 C 128.811 168.252, 126.491 164, 121.750 164 C 117.130 164, 113.346 161.482, 112.637 157.935 C 112.111 155.305, 112.452 154.428, 114.693 152.641 C 119.820 148.555, 120.352 148.279, 122.176 148.756 C 126.156 149.797, 128.803 143.741, 125.548 141.040 C 123.244 139.128, 120.639 140.227, 118.812 143.883 C 116.322 148.868, 111.880 153.127, 109.525 152.790 C 107.757 152.537, 107.436 151.570, 107 145.177 C 106.578 138.996, 106.780 137.600, 108.294 136.232 C 110.525 134.215, 110.151 131.159, 107.454 129.378 C 105.713 128.228, 105.078 128.257, 103.204 129.570 M 188 130.752 C 181.124 134.186, 181.003 134.980, 181.002 176.750 L 181 214 169.750 214.006 C 163.563 214.009, 156.813 214.480, 154.752 215.052 C 147.692 217.013, 148 213.374, 148 294.950 L 148 368 256 368 L 364 368 364 294.516 L 364 221.032 361.083 217.766 L 358.166 214.500 344.083 214.154 L 330 213.808 330 191.591 L 330 169.374 327.195 166.687 C 324.397 164.006, 324.356 164, 308.806 164 C 287.522 164, 288.599 165.014, 288.180 144.591 L 287.859 129 239.680 129.002 C 195.814 129.003, 191.187 129.160, 188 130.752 M 403 138.500 L 403 146 398 146 L 393 146 393 159.300 C 393 168.311, 393.387 172.987, 394.200 173.800 C 395.880 175.480, 426.120 175.480, 427.800 173.800 C 428.631 172.969, 429 167.804, 429 157.016 L 429 141.432 423.719 136.216 L 418.437 131 410.719 131 L 403 131 403 138.500 M 395.446 141.087 C 395.077 141.685, 395.275 142.675, 395.887 143.287 C 396.704 144.104, 397 143.815, 397 142.200 C 397 139.785, 396.481 139.413, 395.446 141.087 M 405.250 149.739 C 408.413 149.937, 413.587 149.937, 416.750 149.739 C 419.913 149.541, 417.325 149.378, 411 149.378 C 404.675 149.378, 402.087 149.541, 405.250 149.739 M 405.250 151.739 C 408.413 151.937, 413.587 151.937, 416.750 151.739 C 419.913 151.541, 417.325 151.378, 411 151.378 C 404.675 151.378, 402.087 151.541, 405.250 151.739 M 405.250 157.739 C 408.413 157.937, 413.587 157.937, 416.750 157.739 C 419.913 157.541, 417.325 157.378, 411 157.378 C 404.675 157.378, 402.087 157.541, 405.250 157.739 M 405.250 159.739 C 408.413 159.937, 413.587 159.937, 416.750 159.739 C 419.913 159.541, 417.325 159.378, 411 159.378 C 404.675 159.378, 402.087 159.541, 405.250 159.739 M 399.515 165.975 C 399.162 166.547, 399.495 167.253, 400.254 167.544 C 402.662 168.468, 421.997 167.550, 422.255 166.500 C 422.595 165.114, 400.365 164.601, 399.515 165.975 M 405.250 166.739 C 408.413 166.937, 413.587 166.937, 416.750 166.739 C 419.913 166.541, 417.325 166.378, 411 166.378 C 404.675 166.378, 402.087 166.541, 405.250 166.739 M 212.667 206.667 C 211.431 207.903, 211.988 210.781, 213.582 211.393 C 214.452 211.727, 233.747 212, 256.459 212 C 291.790 212, 297.933 211.785, 298.989 210.513 C 299.668 209.695, 299.963 208.345, 299.643 207.513 C 299.138 206.195, 293.538 206, 256.198 206 C 232.622 206, 213.033 206.300, 212.667 206.667 M 156.115 223.361 C 155.295 224.350, 155.056 243.294, 155.243 292.611 L 155.500 360.500 256 360.500 L 356.500 360.500 356.776 293.500 C 356.928 256.650, 356.806 225.488, 356.507 224.250 C 355.976 222.060, 355.615 222, 342.981 222 L 330 222 330 271.099 C 330 324.761, 330.003 324.727, 324.164 328.691 C 321.660 330.391, 317.517 330.500, 255.331 330.500 L 189.161 330.500 186.452 328 C 180.993 322.964, 181 323.036, 181 270.532 L 181 222 169.122 222 C 160.324 222, 156.952 222.353, 156.115 223.361 M 212.362 223.500 C 212.045 224.325, 212.045 225.675, 212.362 226.500 C 213.230 228.762, 297.122 228.762, 299 226.500 C 299.993 225.303, 299.993 224.697, 299 223.500 C 297.929 222.210, 291.823 222, 255.346 222 C 218.572 222, 212.861 222.199, 212.362 223.500 M 212.667 238.667 C 211.431 239.903, 211.988 242.781, 213.582 243.393 C 214.452 243.727, 233.747 244, 256.459 244 C 291.947 244, 297.930 243.789, 299 242.500 C 299.993 241.303, 299.993 240.697, 299 239.500 C 297.929 238.210, 291.845 238, 255.544 238 C 232.328 238, 213.033 238.300, 212.667 238.667 M 212.357 255.513 C 212.037 256.345, 212.332 257.695, 213.011 258.513 C 214.794 260.661, 295.590 260.752, 298.521 258.608 C 300.138 257.426, 300.224 256.975, 299.090 255.608 C 297.902 254.177, 293.091 254, 255.346 254 C 218.413 254, 212.862 254.195, 212.357 255.513 M 91.407 259.031 C 69.225 263.428, 56.085 287.210, 64.074 308.500 C 67.194 316.817, 76.190 325.810, 84.500 328.922 C 93.017 332.110, 106.039 331.627, 114.196 327.819 C 121.456 324.430, 128.420 317.470, 131.830 310.196 C 134.181 305.181, 134.494 303.304, 134.454 294.500 C 134.398 282.536, 132.596 277.690, 125.302 269.891 C 119.689 263.891, 113.647 260.591, 105.526 259.089 C 98.939 257.872, 97.287 257.865, 91.407 259.031 M 406.357 268.068 C 394.544 269.647, 384.008 277.177, 378.792 287.768 C 375.767 293.912, 375.500 295.225, 375.500 303.992 C 375.500 312.749, 375.769 314.076, 378.781 320.200 C 393.319 349.757, 437.223 346.942, 447.570 315.789 C 450.092 308.198, 449.193 295.135, 445.679 288.287 C 438.040 273.401, 423.271 265.807, 406.357 268.068 M 212.306 271.645 C 210.734 275.741, 213.331 276, 256 276 C 289.123 276, 296.969 275.743, 298.521 274.608 C 300.138 273.426, 300.224 272.975, 299.090 271.608 C 297.902 270.177, 293.091 270, 255.346 270 C 216.915 270, 212.878 270.154, 212.306 271.645 M 88.014 273.974 C 86.948 275.966, 87.176 276, 101.465 276 L 116 276 116 293.500 C 116 304.500, 116.371 311, 117 311 C 117.624 311, 118.056 304.233, 118.150 293 C 118.233 283.100, 118.345 274.438, 118.400 273.750 C 118.475 272.814, 114.812 272.431, 103.799 272.224 C 89.910 271.962, 89.039 272.059, 88.014 273.974 M 95.750 274.743 C 99.737 274.932, 106.263 274.932, 110.250 274.743 C 114.237 274.553, 110.975 274.397, 103 274.397 C 95.025 274.397, 91.763 274.553, 95.750 274.743 M 76 298.452 L 76 319 91.350 319 L 106.701 319 107.350 309.846 C 108.483 293.886, 108.187 285.400, 106.445 283.955 C 105.590 283.245, 104.407 281.727, 103.816 280.582 C 102.990 278.984, 103.522 279.197, 106.105 281.500 C 107.965 283.159, 108.624 283.495, 107.579 282.250 C 105.697 280.008, 105.700 280, 108.318 280 L 110.945 280 110.775 297.498 C 110.675 307.825, 110.994 315.099, 111.553 315.248 C 112.117 315.398, 112.610 307.928, 112.772 296.750 L 113.044 278 109.522 278 C 107.585 278, 106 278.505, 106 279.122 C 106 279.899, 105.615 279.930, 104.750 279.222 C 104.054 278.652, 97.407 278.133, 89.750 278.051 L 76 277.904 76 298.452 M 393 305.155 L 393 325.227 397.250 324.656 C 399.587 324.343, 404.875 323.800, 409 323.450 L 416.500 322.814 416.206 304.859 C 415.994 291.932, 415.574 286.800, 414.706 286.535 C 414.043 286.333, 408.887 285.923, 403.250 285.625 L 393 285.084 393 305.155 M 423.250 288.721 L 418 289.105 418 296.017 C 418 301.744, 418.320 303.101, 419.869 303.930 C 421.697 304.908, 423 304.465, 423 302.865 C 423 302.424, 422.325 302.322, 421.500 302.638 C 420.550 303.003, 420 302.625, 420 301.607 C 420 300.581, 420.861 300, 422.382 300 C 424.485 300, 424.771 300.468, 424.819 304 C 424.868 307.491, 424.590 308, 422.637 308 C 421.407 308, 419.837 307.438, 419.149 306.750 C 418.148 305.750, 417.958 306.898, 418.199 312.500 L 418.500 319.500 425.776 319.794 L 433.051 320.089 432.776 304.294 C 432.464 286.419, 433.417 287.977, 423.250 288.721 M 85.201 293.028 C 80.292 297.601, 81.278 304.408, 87.274 307.341 C 90.343 308.843, 91.613 308.982, 94.155 308.096 C 97.636 306.882, 99.920 304.389, 99.968 301.750 C 99.994 300.315, 99.145 300.013, 95.250 300.070 C 92.188 300.116, 91.156 300.399, 92.347 300.867 C 93.997 301.517, 94.029 301.731, 92.645 302.880 C 90.684 304.507, 88.036 304.011, 86.612 301.750 C 85.044 299.260, 86.988 296.567, 90.601 296.226 C 98.306 295.497, 99.881 294.178, 95.453 292.161 C 91.632 290.419, 87.638 290.757, 85.201 293.028 M 399.881 298.007 C 396.975 299.705, 395.583 304.579, 397.016 308.038 C 398.527 311.686, 400.716 313, 405.279 313 C 408.890 313, 411.281 311.083, 412.449 307.250 C 413.054 305.266, 412.782 305, 410.149 305 C 408.507 305, 406.452 304.727, 405.582 304.393 C 404.712 304.059, 404 304.240, 404 304.795 C 404 305.350, 405.350 306.275, 407 306.850 C 410.415 308.041, 410.896 309.532, 408.100 310.264 C 402.211 311.804, 397.564 307.447, 399.818 302.500 C 400.813 300.316, 401.593 300, 405.979 300 C 411.168 300, 412.701 298.689, 408.750 297.630 C 405.497 296.758, 401.745 296.918, 399.881 298.007" stroke="none" fill="#c3c6cb" fill-rule="evenodd"/></svg>