<svg xmlns="http://www.w3.org/2000/svg" width="512" height="512" viewBox="0 0 512 512" version="1.1"><path d="M 123.500 123.935 C 118.618 125.124, 114.508 127.657, 111.023 131.626 C 104.055 139.562, 104.529 131.807, 104.227 242.914 C 103.921 355.122, 103.645 350.272, 110.790 358.198 C 112.830 360.462, 116.750 363.364, 119.500 364.647 C 124.492 366.977, 124.565 366.980, 167.333 366.990 L 210.167 367 208.032 364.250 C 206.858 362.738, 204.303 359.363, 202.355 356.750 L 198.812 352 163.357 352 C 123.878 352, 123.102 351.882, 120.421 345.466 C 118.214 340.184, 118.306 148.244, 120.517 143.967 C 123.637 137.934, 122.998 138, 178.433 138 L 228.965 138 229.233 162.750 L 229.500 187.500 260.750 187.764 L 292 188.028 292 221.514 L 292 255 299.500 255 L 307 255 307 218.200 L 307 181.399 298.250 173.838 C 293.438 169.679, 278.264 156.539, 264.531 144.638 L 239.561 123 183.031 123.102 C 151.939 123.159, 125.150 123.533, 123.500 123.935 M 244 159.865 L 244 171.897 258.502 172.199 C 266.477 172.364, 273.002 172.433, 273.002 172.350 C 272.997 171.954, 245.705 148.457, 244.912 148.167 C 244.395 147.978, 244 153.043, 244 159.865 M 151 218 L 151 224 202 224 L 253 224 253 218 L 253 212 202 212 L 151 212 151 218 M 151 246 L 151 252 202 252 L 253 252 253 246 L 253 240 202 240 L 151 240 151 246 M 261 268.051 C 243.430 268.639, 239.593 269.532, 229.672 275.347 C 219.247 281.456, 208.679 296.457, 206.105 308.799 C 200.439 335.971, 217.560 363.441, 244.542 370.469 C 249.232 371.690, 256.936 372, 282.658 372 L 314.895 372 319.529 380.500 L 324.162 389 351.626 389 L 379.091 389 378.524 385.750 C 378.212 383.962, 377.587 379.656, 377.134 376.181 L 376.312 369.862 381.854 366.316 C 393.167 359.080, 401.663 347.806, 405.405 335.068 C 407.496 327.949, 407.496 313.051, 405.405 305.932 C 400.172 288.118, 386.518 274.510, 369 269.652 C 364.557 268.420, 355.238 268.067, 320.500 267.813 C 296.850 267.641, 270.075 267.748, 261 268.051 M 183 274.250 L 183 280 192.960 280 L 202.920 280 207.710 274.900 C 210.344 272.096, 212.612 269.508, 212.749 269.150 C 212.886 268.793, 206.248 268.500, 197.999 268.500 L 182.999 268.500 183 274.250 M 245.079 284.627 C 235.401 288.050, 227.689 295.168, 223.135 304.880 C 220.868 309.716, 220.500 311.825, 220.500 320 C 220.500 328.222, 220.862 330.272, 223.188 335.236 C 226.618 342.554, 233.895 349.831, 241.522 353.569 L 247.500 356.500 287.054 356.792 L 326.608 357.085 330.148 365.292 L 333.687 373.500 347.491 373.779 L 361.295 374.058 360.674 367.413 C 360.001 360.200, 360.984 357, 363.875 357 C 367.400 357, 377.857 350.879, 381.987 346.398 C 384.293 343.897, 387.376 339.296, 388.840 336.175 C 391.191 331.159, 391.500 329.280, 391.500 320 C 391.500 309.961, 391.351 309.226, 388.110 303.248 C 383.991 295.653, 377.759 289.716, 370.175 286.160 L 364.500 283.500 307 283.282 C 257.019 283.092, 248.922 283.268, 245.079 284.627 M 254 306.706 C 251.668 307.559, 247.954 311.223, 246.405 314.200 C 243.592 319.608, 245.114 325.981, 250.397 330.917 C 254.073 334.351, 262.238 334.903, 266.818 332.029 C 273.270 327.980, 275.410 318.612, 271.348 312.202 C 268.227 307.279, 259.766 304.598, 254 306.706 M 299.121 307.710 C 294.612 309.931, 292.007 314.431, 292.007 320 C 292.007 328.658, 298.888 334.815, 307.303 333.686 C 321.177 331.825, 324.343 314.081, 311.929 307.752 C 307.652 305.571, 303.491 305.557, 299.121 307.710 M 346.418 306.969 C 343.261 308.246, 339.157 313.645, 338.441 317.464 C 336.853 325.929, 343.802 334, 352.679 334 C 356.263 334, 362.372 330.334, 364.340 327.001 C 368.051 320.719, 365.376 310.797, 359.094 307.549 C 355.873 305.883, 349.790 305.605, 346.418 306.969 M 255.571 316.571 C 254.707 317.436, 254 318.815, 254 319.637 C 254 325.137, 260.578 327.100, 263.592 322.500 C 265.109 320.184, 265.109 319.816, 263.592 317.500 C 261.709 314.626, 257.952 314.191, 255.571 316.571 M 302.200 316.200 C 300.363 318.037, 300.769 321.481, 303.068 323.562 C 304.957 325.271, 305.370 325.303, 307.818 323.933 C 311.001 322.153, 311.744 318.887, 309.482 316.625 C 307.570 314.713, 303.901 314.499, 302.200 316.200 M 348.571 316.571 C 346.427 318.716, 346.599 321.327, 349.030 323.527 C 353.399 327.481, 359.731 320.995, 355.950 316.440 C 354.372 314.538, 350.536 314.606, 348.571 316.571" stroke="none" fill="#09373f" fill-rule="evenodd"/><path d="M 0 256.002 L 0 512.004 256.250 511.752 L 512.500 511.500 512.752 255.750 L 513.004 0 256.502 0 L 0 0 0 256.002 M 0.492 256.500 C 0.492 397.300, 0.608 454.751, 0.750 384.170 C 0.892 313.588, 0.892 198.388, 0.750 128.170 C 0.608 57.951, 0.492 115.700, 0.492 256.500 M 123.500 123.935 C 118.618 125.124, 114.508 127.657, 111.023 131.626 C 104.055 139.562, 104.529 131.807, 104.227 242.914 C 103.921 355.122, 103.645 350.272, 110.790 358.198 C 112.830 360.462, 116.750 363.364, 119.500 364.647 C 124.492 366.977, 124.565 366.980, 167.333 366.990 L 210.167 367 208.032 364.250 C 206.858 362.738, 204.303 359.363, 202.355 356.750 L 198.812 352 163.357 352 C 123.878 352, 123.102 351.882, 120.421 345.466 C 118.214 340.184, 118.306 148.244, 120.517 143.967 C 123.637 137.934, 122.998 138, 178.433 138 L 228.965 138 229.233 162.750 L 229.500 187.500 260.750 187.764 L 292 188.028 292 221.514 L 292 255 299.500 255 L 307 255 307 218.200 L 307 181.399 298.250 173.838 C 293.438 169.679, 278.264 156.539, 264.531 144.638 L 239.561 123 183.031 123.102 C 151.939 123.159, 125.150 123.533, 123.500 123.935 M 244 159.865 L 244 171.897 258.502 172.199 C 266.477 172.364, 273.002 172.433, 273.002 172.350 C 272.997 171.954, 245.705 148.457, 244.912 148.167 C 244.395 147.978, 244 153.043, 244 159.865 M 151 218 L 151 224 202 224 L 253 224 253 218 L 253 212 202 212 L 151 212 151 218 M 151 246 L 151 252 202 252 L 253 252 253 246 L 253 240 202 240 L 151 240 151 246 M 261 268.051 C 243.430 268.639, 239.593 269.532, 229.672 275.347 C 219.247 281.456, 208.679 296.457, 206.105 308.799 C 200.439 335.971, 217.560 363.441, 244.542 370.469 C 249.232 371.690, 256.936 372, 282.658 372 L 314.895 372 319.529 380.500 L 324.162 389 351.626 389 L 379.091 389 378.524 385.750 C 378.212 383.962, 377.587 379.656, 377.134 376.181 L 376.312 369.862 381.854 366.316 C 393.167 359.080, 401.663 347.806, 405.405 335.068 C 407.496 327.949, 407.496 313.051, 405.405 305.932 C 400.172 288.118, 386.518 274.510, 369 269.652 C 364.557 268.420, 355.238 268.067, 320.500 267.813 C 296.850 267.641, 270.075 267.748, 261 268.051 M 183 274.250 L 183 280 192.960 280 L 202.920 280 207.710 274.900 C 210.344 272.096, 212.612 269.508, 212.749 269.150 C 212.886 268.793, 206.248 268.500, 197.999 268.500 L 182.999 268.500 183 274.250 M 245.079 284.627 C 235.401 288.050, 227.689 295.168, 223.135 304.880 C 220.868 309.716, 220.500 311.825, 220.500 320 C 220.500 328.222, 220.862 330.272, 223.188 335.236 C 226.618 342.554, 233.895 349.831, 241.522 353.569 L 247.500 356.500 287.054 356.792 L 326.608 357.085 330.148 365.292 L 333.687 373.500 347.491 373.779 L 361.295 374.058 360.674 367.413 C 360.001 360.200, 360.984 357, 363.875 357 C 367.400 357, 377.857 350.879, 381.987 346.398 C 384.293 343.897, 387.376 339.296, 388.840 336.175 C 391.191 331.159, 391.500 329.280, 391.500 320 C 391.500 309.961, 391.351 309.226, 388.110 303.248 C 383.991 295.653, 377.759 289.716, 370.175 286.160 L 364.500 283.500 307 283.282 C 257.019 283.092, 248.922 283.268, 245.079 284.627 M 254 306.706 C 251.668 307.559, 247.954 311.223, 246.405 314.200 C 243.592 319.608, 245.114 325.981, 250.397 330.917 C 254.073 334.351, 262.238 334.903, 266.818 332.029 C 273.270 327.980, 275.410 318.612, 271.348 312.202 C 268.227 307.279, 259.766 304.598, 254 306.706 M 299.121 307.710 C 294.612 309.931, 292.007 314.431, 292.007 320 C 292.007 328.658, 298.888 334.815, 307.303 333.686 C 321.177 331.825, 324.343 314.081, 311.929 307.752 C 307.652 305.571, 303.491 305.557, 299.121 307.710 M 346.418 306.969 C 343.261 308.246, 339.157 313.645, 338.441 317.464 C 336.853 325.929, 343.802 334, 352.679 334 C 356.263 334, 362.372 330.334, 364.340 327.001 C 368.051 320.719, 365.376 310.797, 359.094 307.549 C 355.873 305.883, 349.790 305.605, 346.418 306.969 M 255.571 316.571 C 254.707 317.436, 254 318.815, 254 319.637 C 254 325.137, 260.578 327.100, 263.592 322.500 C 265.109 320.184, 265.109 319.816, 263.592 317.500 C 261.709 314.626, 257.952 314.191, 255.571 316.571 M 302.200 316.200 C 300.363 318.037, 300.769 321.481, 303.068 323.562 C 304.957 325.271, 305.370 325.303, 307.818 323.933 C 311.001 322.153, 311.744 318.887, 309.482 316.625 C 307.570 314.713, 303.901 314.499, 302.200 316.200 M 348.571 316.571 C 346.427 318.716, 346.599 321.327, 349.030 323.527 C 353.399 327.481, 359.731 320.995, 355.950 316.440 C 354.372 314.538, 350.536 314.606, 348.571 316.571" stroke="none" fill="#adbbbb" fill-rule="evenodd"/></svg>