<svg xmlns="http://www.w3.org/2000/svg" width="512" height="512" viewBox="0 0 512 512" version="1.1"><path d="M 217.500 120.636 C 196.755 125.001, 177.092 140.976, 168.470 160.472 C 163.237 172.305, 162.776 175.700, 162.084 207.500 L 161.431 237.500 152.356 261 L 143.280 284.500 156.390 285 L 169.500 285.500 170 318.575 L 170.500 351.651 173.183 355.703 C 174.930 358.341, 177.702 360.669, 181.129 362.377 C 185.675 364.643, 187.661 365, 195.696 365 L 205 365 205 378.500 L 205 392 259.500 392 L 314 392 314 371.500 L 314 351 320.290 351 C 333.148 351, 344.489 346.294, 353.608 337.174 C 359.756 331.026, 365.480 320.315, 367.001 312.114 C 368.305 305.081, 368.297 209.054, 366.992 194.302 C 365.792 180.751, 362.646 170.291, 356.574 159.665 C 347.890 144.466, 337.863 135.015, 322.325 127.382 C 306.945 119.826, 300.787 119.014, 259.500 119.095 C 232.728 119.147, 222.854 119.509, 217.500 120.636 M 215.500 128.870 C 194.156 135.014, 177.453 152.178, 171.975 173.596 C 170.249 180.345, 170 184.704, 170 208.127 L 170 234.935 162.371 255.217 C 158.175 266.373, 154.527 276.063, 154.264 276.750 C 153.899 277.706, 156.519 278, 165.393 278 L 177 278 177 312.632 C 177 345.732, 177.090 347.410, 179.038 350.561 C 180.158 352.374, 183.001 354.790, 185.353 355.929 C 189.326 357.852, 191.393 358, 214.316 358 L 239 358 239 361.500 L 239 365 225.500 365 L 212 365 212 375 L 212 385 259.500 385 L 307 385 307 368 L 307 351 303 351 C 299.123 351, 299 350.896, 299 347.624 L 299 344.248 313.750 343.775 C 325.430 343.402, 329.586 342.878, 333.719 341.259 C 341.133 338.356, 348.381 332.711, 353.029 326.220 C 360.077 316.378, 360 317.151, 360 255.907 L 360 201.178 356.923 198.589 C 354.276 196.362, 352.901 196, 347.078 196 C 337.912 196, 337 197.071, 337 207.833 L 337 216.008 333.750 215.754 C 330.627 215.510, 330.481 215.305, 330 210.500 L 329.500 205.500 311.250 205.227 L 293 204.955 293 201.500 L 293 198.044 311.727 197.772 L 330.454 197.500 331.357 194.929 C 332.111 192.784, 331.499 191.038, 327.666 184.393 C 323.894 177.854, 322.426 176.194, 319.467 175.124 C 309.123 171.384, 309.825 155.523, 320.490 152.003 C 327.771 149.600, 336 155.970, 336 164.008 C 336 166.332, 335.052 169.117, 333.466 171.454 L 330.933 175.188 334.515 181.594 L 338.098 188 345.984 188 C 350.321 188, 355.024 188.439, 356.435 188.975 C 358.575 189.789, 358.998 189.665, 358.988 188.225 C 358.960 184.140, 355.750 174.824, 351.330 166 C 347.457 158.269, 344.981 154.901, 338.033 147.916 C 330.915 140.761, 327.915 138.557, 319.997 134.672 C 305.907 127.758, 301.836 127, 278.790 127 L 259 127 259 131.433 C 259 135.064, 259.381 135.986, 261.111 136.535 C 265.010 137.773, 270.938 144.056, 272.029 148.108 C 272.981 151.644, 273.382 152, 276.416 152 C 280.319 152, 282.435 154.055, 281.515 156.952 C 280.990 158.608, 280.021 159, 276.458 159 C 272.603 159, 271.863 159.364, 270.546 161.912 C 264.295 173.998, 245.913 173.401, 239.449 160.901 C 235.408 153.087, 239.660 141.261, 247.834 137.575 C 251.795 135.789, 252 135.482, 252 131.348 L 252 127 236.750 127.071 C 225.460 127.124, 219.942 127.591, 215.500 128.870 M 248.974 145.872 C 245.120 149.726, 244.320 153.352, 246.375 157.661 C 248.241 161.572, 253.612 164.386, 257.399 163.436 C 260.364 162.692, 264.537 158.292, 265.312 155.092 C 265.633 153.768, 265.291 151.240, 264.553 149.473 C 261.675 142.585, 254.029 140.818, 248.974 145.872 M 224.170 155.874 C 223.414 156.353, 222.982 157.966, 223.170 159.609 C 223.449 162.057, 223.998 162.548, 226.750 162.813 C 230.071 163.134, 230.461 162.618, 230.012 158.500 C 229.672 155.387, 226.902 154.142, 224.170 155.874 M 194 159.437 C 194 162.854, 194.146 163, 197.563 163 C 200.981 163, 201.114 162.867, 200.813 159.750 C 200.538 156.892, 200.108 156.462, 197.250 156.187 C 194.133 155.886, 194 156.019, 194 159.437 M 320.200 160.200 C 319.540 160.860, 319 162.345, 319 163.500 C 319 166.330, 320.856 168, 324 168 C 327.003 168, 329 166.351, 329 163.871 C 329 159.936, 322.977 157.423, 320.200 160.200 M 196.122 180.624 C 190.115 186.037, 191.014 193.888, 198.058 197.530 C 200.550 198.819, 203.066 198.977, 212.048 198.408 L 223 197.715 223 194.858 C 223 192.729, 222.521 192, 221.122 192 C 216.656 192, 216.163 187.158, 220.431 185.213 C 222.226 184.395, 222.641 183.571, 222.260 181.578 C 221.805 179.198, 221.364 179, 216.530 179 C 213.650 179, 208.598 178.718, 205.304 178.374 C 199.692 177.787, 199.112 177.929, 196.122 180.624 M 229.384 179.442 C 228.394 182.021, 229.471 184.493, 231.725 184.815 C 233.374 185.051, 234.088 184.498, 234.559 182.622 C 234.905 181.242, 234.894 179.638, 234.535 179.057 C 233.576 177.504, 230.026 177.770, 229.384 179.442 M 201.200 186.200 C 199.437 187.963, 199.734 189.787, 201.979 190.989 C 204.484 192.329, 208.661 191.325, 209.482 189.186 C 210.717 185.968, 203.893 183.507, 201.200 186.200 M 243.667 186.667 C 243.300 187.033, 243 188.608, 243 190.167 C 243 192.648, 243.373 193, 246 193 C 248.762 193, 249 192.722, 249 189.500 C 249 186.500, 248.667 186, 246.667 186 C 245.383 186, 244.033 186.300, 243.667 186.667 M 220.707 223.724 C 220.462 224.151, 219.783 226.075, 219.196 228 C 218.609 229.925, 214.533 243.200, 210.138 257.500 C 203.590 278.802, 192.677 314.582, 190.388 322.250 C 189.911 323.846, 190.882 324, 201.394 324 L 212.923 324 214.037 319.750 C 214.650 317.413, 215.768 313.250, 216.521 310.500 C 217.275 307.750, 218.387 303.576, 218.992 301.224 L 220.091 296.947 234.777 297.224 L 249.462 297.500 253.370 310.618 L 257.277 323.737 263.889 324.361 C 267.525 324.705, 273.136 324.989, 276.357 324.993 C 281.383 324.999, 282.124 324.767, 281.583 323.355 C 281.236 322.451, 275.275 303.438, 268.337 281.105 C 261.399 258.772, 254.523 236.675, 253.058 232 L 250.394 223.500 235.772 223.224 C 227.730 223.072, 220.951 223.297, 220.707 223.724 M 295 274 L 295 325 306.500 325 L 318 325 318 274 L 318 223 306.500 223 L 295 223 295 274 M 325 232.060 L 325 236.121 328.750 235.810 C 332.296 235.517, 332.517 235.296, 332.810 231.750 L 333.121 228 329.060 228 L 325 228 325 232.060 M 343 232 C 343 235.905, 343.083 236, 346.500 236 C 349.917 236, 350 235.905, 350 232 C 350 228.095, 349.917 228, 346.500 228 C 343.083 228, 343 228.095, 343 232 M 232.682 246 C 231.741 250.125, 229.233 259.688, 227.108 267.250 L 223.244 281 234.622 281 C 240.880 281, 246 280.798, 246 280.551 C 246 280.303, 243.578 271.641, 240.617 261.301 C 237.656 250.960, 235.044 241.600, 234.813 240.500 C 234.578 239.381, 233.639 241.804, 232.682 246 M 198 341 C 198 344.905, 198.083 345, 201.500 345 C 204.917 345, 205 344.905, 205 341 C 205 337.095, 204.917 337, 201.500 337 C 198.083 337, 198 337.095, 198 341 M 215 341 C 215 344.905, 215.083 345, 218.500 345 C 221.917 345, 222 344.905, 222 341 C 222 337.095, 221.917 337, 218.500 337 C 215.083 337, 215 337.095, 215 341 M 232 341 C 232 344.905, 232.083 345, 235.500 345 C 238.917 345, 239 344.905, 239 341 C 239 337.095, 238.917 337, 235.500 337 C 232.083 337, 232 337.095, 232 341 M 249 340.940 L 249 345 253.060 345 L 257.121 345 256.810 341.250 C 256.517 337.704, 256.296 337.483, 252.750 337.190 L 249 336.879 249 340.940" stroke="none" fill="#354a49" fill-rule="evenodd"/><path d="M 0 256.002 L 0 512.004 256.250 511.752 L 512.500 511.500 512.752 255.750 L 513.004 0 256.502 0 L 0 0 0 256.002 M 0.492 256.500 C 0.492 397.300, 0.608 454.751, 0.750 384.170 C 0.892 313.588, 0.892 198.388, 0.750 128.170 C 0.608 57.951, 0.492 115.700, 0.492 256.500 M 217.500 120.636 C 196.755 125.001, 177.092 140.976, 168.470 160.472 C 163.237 172.305, 162.776 175.700, 162.084 207.500 L 161.431 237.500 152.356 261 L 143.280 284.500 156.390 285 L 169.500 285.500 170 318.575 L 170.500 351.651 173.183 355.703 C 174.930 358.341, 177.702 360.669, 181.129 362.377 C 185.675 364.643, 187.661 365, 195.696 365 L 205 365 205 378.500 L 205 392 259.500 392 L 314 392 314 371.500 L 314 351 320.290 351 C 333.148 351, 344.489 346.294, 353.608 337.174 C 359.756 331.026, 365.480 320.315, 367.001 312.114 C 368.305 305.081, 368.297 209.054, 366.992 194.302 C 365.792 180.751, 362.646 170.291, 356.574 159.665 C 347.890 144.466, 337.863 135.015, 322.325 127.382 C 306.945 119.826, 300.787 119.014, 259.500 119.095 C 232.728 119.147, 222.854 119.509, 217.500 120.636 M 215.500 128.870 C 194.156 135.014, 177.453 152.178, 171.975 173.596 C 170.249 180.345, 170 184.704, 170 208.127 L 170 234.935 162.371 255.217 C 158.175 266.373, 154.527 276.063, 154.264 276.750 C 153.899 277.706, 156.519 278, 165.393 278 L 177 278 177 312.632 C 177 345.732, 177.090 347.410, 179.038 350.561 C 180.158 352.374, 183.001 354.790, 185.353 355.929 C 189.326 357.852, 191.393 358, 214.316 358 L 239 358 239 361.500 L 239 365 225.500 365 L 212 365 212 375 L 212 385 259.500 385 L 307 385 307 368 L 307 351 303 351 C 299.123 351, 299 350.896, 299 347.624 L 299 344.248 313.750 343.775 C 325.430 343.402, 329.586 342.878, 333.719 341.259 C 341.133 338.356, 348.381 332.711, 353.029 326.220 C 360.077 316.378, 360 317.151, 360 255.907 L 360 201.178 356.923 198.589 C 354.276 196.362, 352.901 196, 347.078 196 C 337.912 196, 337 197.071, 337 207.833 L 337 216.008 333.750 215.754 C 330.627 215.510, 330.481 215.305, 330 210.500 L 329.500 205.500 311.250 205.227 L 293 204.955 293 201.500 L 293 198.044 311.727 197.772 L 330.454 197.500 331.357 194.929 C 332.111 192.784, 331.499 191.038, 327.666 184.393 C 323.894 177.854, 322.426 176.194, 319.467 175.124 C 309.123 171.384, 309.825 155.523, 320.490 152.003 C 327.771 149.600, 336 155.970, 336 164.008 C 336 166.332, 335.052 169.117, 333.466 171.454 L 330.933 175.188 334.515 181.594 L 338.098 188 345.984 188 C 350.321 188, 355.024 188.439, 356.435 188.975 C 358.575 189.789, 358.998 189.665, 358.988 188.225 C 358.960 184.140, 355.750 174.824, 351.330 166 C 347.457 158.269, 344.981 154.901, 338.033 147.916 C 330.915 140.761, 327.915 138.557, 319.997 134.672 C 305.907 127.758, 301.836 127, 278.790 127 L 259 127 259 131.433 C 259 135.064, 259.381 135.986, 261.111 136.535 C 265.010 137.773, 270.938 144.056, 272.029 148.108 C 272.981 151.644, 273.382 152, 276.416 152 C 280.319 152, 282.435 154.055, 281.515 156.952 C 280.990 158.608, 280.021 159, 276.458 159 C 272.603 159, 271.863 159.364, 270.546 161.912 C 264.295 173.998, 245.913 173.401, 239.449 160.901 C 235.408 153.087, 239.660 141.261, 247.834 137.575 C 251.795 135.789, 252 135.482, 252 131.348 L 252 127 236.750 127.071 C 225.460 127.124, 219.942 127.591, 215.500 128.870 M 248.974 145.872 C 245.120 149.726, 244.320 153.352, 246.375 157.661 C 248.241 161.572, 253.612 164.386, 257.399 163.436 C 260.364 162.692, 264.537 158.292, 265.312 155.092 C 265.633 153.768, 265.291 151.240, 264.553 149.473 C 261.675 142.585, 254.029 140.818, 248.974 145.872 M 224.170 155.874 C 223.414 156.353, 222.982 157.966, 223.170 159.609 C 223.449 162.057, 223.998 162.548, 226.750 162.813 C 230.071 163.134, 230.461 162.618, 230.012 158.500 C 229.672 155.387, 226.902 154.142, 224.170 155.874 M 194 159.437 C 194 162.854, 194.146 163, 197.563 163 C 200.981 163, 201.114 162.867, 200.813 159.750 C 200.538 156.892, 200.108 156.462, 197.250 156.187 C 194.133 155.886, 194 156.019, 194 159.437 M 320.200 160.200 C 319.540 160.860, 319 162.345, 319 163.500 C 319 166.330, 320.856 168, 324 168 C 327.003 168, 329 166.351, 329 163.871 C 329 159.936, 322.977 157.423, 320.200 160.200 M 196.122 180.624 C 190.115 186.037, 191.014 193.888, 198.058 197.530 C 200.550 198.819, 203.066 198.977, 212.048 198.408 L 223 197.715 223 194.858 C 223 192.729, 222.521 192, 221.122 192 C 216.656 192, 216.163 187.158, 220.431 185.213 C 222.226 184.395, 222.641 183.571, 222.260 181.578 C 221.805 179.198, 221.364 179, 216.530 179 C 213.650 179, 208.598 178.718, 205.304 178.374 C 199.692 177.787, 199.112 177.929, 196.122 180.624 M 229.384 179.442 C 228.394 182.021, 229.471 184.493, 231.725 184.815 C 233.374 185.051, 234.088 184.498, 234.559 182.622 C 234.905 181.242, 234.894 179.638, 234.535 179.057 C 233.576 177.504, 230.026 177.770, 229.384 179.442 M 201.200 186.200 C 199.437 187.963, 199.734 189.787, 201.979 190.989 C 204.484 192.329, 208.661 191.325, 209.482 189.186 C 210.717 185.968, 203.893 183.507, 201.200 186.200 M 243.667 186.667 C 243.300 187.033, 243 188.608, 243 190.167 C 243 192.648, 243.373 193, 246 193 C 248.762 193, 249 192.722, 249 189.500 C 249 186.500, 248.667 186, 246.667 186 C 245.383 186, 244.033 186.300, 243.667 186.667 M 220.707 223.724 C 220.462 224.151, 219.783 226.075, 219.196 228 C 218.609 229.925, 214.533 243.200, 210.138 257.500 C 203.590 278.802, 192.677 314.582, 190.388 322.250 C 189.911 323.846, 190.882 324, 201.394 324 L 212.923 324 214.037 319.750 C 214.650 317.413, 215.768 313.250, 216.521 310.500 C 217.275 307.750, 218.387 303.576, 218.992 301.224 L 220.091 296.947 234.777 297.224 L 249.462 297.500 253.370 310.618 L 257.277 323.737 263.889 324.361 C 267.525 324.705, 273.136 324.989, 276.357 324.993 C 281.383 324.999, 282.124 324.767, 281.583 323.355 C 281.236 322.451, 275.275 303.438, 268.337 281.105 C 261.399 258.772, 254.523 236.675, 253.058 232 L 250.394 223.500 235.772 223.224 C 227.730 223.072, 220.951 223.297, 220.707 223.724 M 295 274 L 295 325 306.500 325 L 318 325 318 274 L 318 223 306.500 223 L 295 223 295 274 M 325 232.060 L 325 236.121 328.750 235.810 C 332.296 235.517, 332.517 235.296, 332.810 231.750 L 333.121 228 329.060 228 L 325 228 325 232.060 M 343 232 C 343 235.905, 343.083 236, 346.500 236 C 349.917 236, 350 235.905, 350 232 C 350 228.095, 349.917 228, 346.500 228 C 343.083 228, 343 228.095, 343 232 M 232.682 246 C 231.741 250.125, 229.233 259.688, 227.108 267.250 L 223.244 281 234.622 281 C 240.880 281, 246 280.798, 246 280.551 C 246 280.303, 243.578 271.641, 240.617 261.301 C 237.656 250.960, 235.044 241.600, 234.813 240.500 C 234.578 239.381, 233.639 241.804, 232.682 246 M 198 341 C 198 344.905, 198.083 345, 201.500 345 C 204.917 345, 205 344.905, 205 341 C 205 337.095, 204.917 337, 201.500 337 C 198.083 337, 198 337.095, 198 341 M 215 341 C 215 344.905, 215.083 345, 218.500 345 C 221.917 345, 222 344.905, 222 341 C 222 337.095, 221.917 337, 218.500 337 C 215.083 337, 215 337.095, 215 341 M 232 341 C 232 344.905, 232.083 345, 235.500 345 C 238.917 345, 239 344.905, 239 341 C 239 337.095, 238.917 337, 235.500 337 C 232.083 337, 232 337.095, 232 341 M 249 340.940 L 249 345 253.060 345 L 257.121 345 256.810 341.250 C 256.517 337.704, 256.296 337.483, 252.750 337.190 L 249 336.879 249 340.940" stroke="none" fill="#cbcbcb" fill-rule="evenodd"/></svg>