<svg xmlns="http://www.w3.org/2000/svg" width="512" height="512" viewBox="0 0 512 512" version="1.1"><path d="M 303.500 113.962 C 285.811 117.759, 272.949 128.872, 266.827 145.649 C 264.995 150.669, 264.628 154.304, 264.241 171.250 C 263.865 187.772, 263.551 191, 262.319 191 C 261.509 191, 259.531 192.315, 257.923 193.923 L 255 196.846 255 232.023 L 255 267.200 258.400 270.600 L 261.800 274 312.477 274 L 363.154 274 366.077 271.077 L 369 268.154 369 232.654 L 369 197.153 366.411 194.077 C 364.987 192.385, 362.962 191, 361.911 191 C 360.101 191, 360 190.058, 360 173.210 C 360 160.667, 359.560 153.731, 358.508 149.693 C 354.367 133.793, 342.898 121.298, 327.621 116.042 C 320.949 113.746, 309.218 112.735, 303.500 113.962 M 125.168 117.232 C 124.290 118.110, 124 149.677, 124 244.618 C 124 314.038, 124.273 371.548, 124.607 372.418 C 125.155 373.846, 134.851 374, 224.101 374 L 322.987 374 329.744 380.812 C 333.460 384.559, 338.919 389.172, 341.876 391.062 L 347.252 394.500 230.626 394.754 L 114 395.008 114 397.504 L 114 400 254 400 L 394 400 394 397.500 L 394 395 377.934 395 L 361.869 395 369.184 389.182 C 391.171 371.695, 402.183 348.603, 402.413 319.500 L 402.500 308.500 388 307.970 C 377.355 307.581, 372.702 307.010, 370.498 305.822 C 367.096 303.990, 364.199 301.039, 362.566 297.743 C 361.056 294.697, 355 293.938, 355 296.796 C 355 299.720, 362.157 307.223, 367.959 310.381 C 372.567 312.889, 374.439 313.255, 385.206 313.751 L 397.283 314.307 396.687 324.904 C 395.474 346.466, 387.492 364.441, 372.821 378.655 C 366.464 384.812, 356.328 392, 354 392 C 351.672 392, 341.536 384.812, 335.179 378.655 C 320.318 364.258, 312.648 346.575, 311.313 323.635 L 310.681 312.770 314.648 313.441 C 320.863 314.490, 334.251 312.413, 339.980 309.510 C 344.881 307.027, 351 300.257, 351 297.319 C 351 296.559, 350.256 295.652, 349.347 295.303 C 348.197 294.862, 346.598 295.942, 344.097 298.850 C 342.119 301.149, 340.143 303.024, 339.706 303.015 C 339.270 303.007, 339.045 299.738, 339.206 295.750 L 339.500 288.500 359.750 288.229 L 380 287.959 380 246.300 L 380 204.642 390.060 187.251 C 395.593 177.685, 399.975 169.108, 399.798 168.191 C 399.622 167.274, 398.760 166.385, 397.884 166.216 C 396.427 165.936, 391.850 173.145, 377.333 198.588 L 375 202.676 375 242.817 L 375 282.959 354.750 283.229 L 334.500 283.500 334.214 294.486 C 334.056 300.529, 333.477 305.923, 332.926 306.474 C 332.375 307.025, 326.204 307.706, 319.212 307.988 L 306.500 308.500 306.190 317.500 C 305.633 333.641, 309.329 350.511, 316.100 362.735 C 317.695 365.614, 319 368.202, 319 368.485 C 319 368.768, 313.150 369, 306 369 L 293 369 293 357.918 L 293 346.837 281 334.837 C 273.598 327.435, 269 322.064, 269 320.819 C 269 317.171, 265.919 312.216, 261.933 309.454 C 256.575 305.741, 246.385 305.386, 240.750 308.716 L 237 310.933 237 292.417 L 237 273.901 240.500 270.297 C 244.856 265.812, 244.917 263.526, 240.750 261.003 C 238.437 259.602, 237.356 258.092, 237 255.767 C 236.589 253.082, 236.055 252.500, 234 252.500 C 231.752 252.500, 231.468 252.953, 231.181 256.989 C 230.906 260.855, 231.232 261.773, 233.532 263.607 L 236.203 265.737 233.728 269.618 L 231.254 273.500 231.754 314.258 L 232.255 355.017 235.662 358.008 C 237.536 359.654, 240.291 361.045, 241.785 361.100 C 243.278 361.156, 247.200 361.326, 250.500 361.479 C 258.456 361.848, 262.270 360.595, 265.950 356.404 C 268.934 353.005, 269 352.705, 269 342.465 C 269 336.709, 269.370 332, 269.823 332 C 270.275 332, 274.325 335.770, 278.823 340.378 L 287 348.756 287 358.878 L 287 369 246.500 369 L 206 369 206 293.500 L 206 218 168 218 L 130 218 130 170 L 130 122 164.989 122 L 199.979 122 200.239 165.750 L 200.500 209.500 203 209.500 L 205.500 209.500 205.769 186.750 L 206.038 164 212.769 163.885 C 216.471 163.821, 219.950 163.665, 220.500 163.537 C 221.050 163.409, 228.588 163.236, 237.250 163.152 L 253 163 253 160.500 L 253 158 229.500 158 L 206 158 206 138.122 C 206 122.573, 205.704 117.999, 204.639 117.115 C 202.677 115.487, 126.802 115.598, 125.168 117.232 M 305.580 119.213 C 292.350 120.906, 280.097 129.968, 273.827 142.694 L 270.500 149.447 270.178 170.224 L 269.855 191 277.428 191 L 285 191 285 174.182 C 285 150.092, 287.371 143.944, 299.144 137.503 C 303.707 135.007, 305.611 134.570, 312 134.555 C 318.227 134.541, 320.374 134.996, 324.649 137.235 C 327.481 138.718, 331.206 141.634, 332.928 143.716 C 337.929 149.763, 339 155.143, 339 174.224 L 339 191.084 346.750 190.792 L 354.500 190.500 354.804 175 C 355.152 157.212, 354.092 150.106, 349.831 141.665 C 341.766 125.688, 324.283 116.818, 305.580 119.213 M 304.738 140.692 C 303.769 140.945, 303.203 141.520, 303.482 141.971 C 303.761 142.422, 303.293 143.057, 302.442 143.384 C 301.480 143.753, 301.150 143.566, 301.569 142.889 C 302.942 140.667, 298.217 143.954, 295.646 147.009 C 291.770 151.615, 291.012 155.984, 291.006 173.750 L 291 190 312.599 190 L 334.198 190 333.819 172.750 C 333.481 157.358, 333.204 155.052, 331.248 151.345 C 327.381 144.013, 320.230 139.921, 311.628 140.116 C 308.808 140.180, 305.707 140.439, 304.738 140.692 M 161.450 148.407 C 151.891 152.571, 149.097 165.485, 156.045 173.398 C 159.907 177.797, 163.935 179.380, 169.631 178.738 C 175.419 178.086, 178.868 175.596, 181.815 169.941 C 188.685 156.758, 175.147 142.441, 161.450 148.407 M 162.304 153.904 C 155.263 158.312, 156.035 168.890, 163.662 172.510 C 167.998 174.567, 171.303 173.851, 175.128 170.026 C 183.564 161.590, 172.417 147.575, 162.304 153.904 M 232.409 197.378 C 231.533 199.659, 232.299 202.159, 234.250 203.388 C 236.815 205.003, 239.500 202.959, 239.500 199.391 C 239.500 196.859, 239.096 196.461, 236.243 196.186 C 234.047 195.974, 232.798 196.363, 232.409 197.378 M 261.571 197.571 C 260.206 198.936, 260 203.470, 260 232.071 C 260 263.667, 260.081 265.081, 262 267 C 263.945 268.945, 265.333 269, 312.345 269 C 357.911 269, 360.785 268.895, 362.345 267.171 C 363.816 265.546, 364 261.613, 364 231.871 C 364 207.171, 363.686 198.086, 362.800 197.200 C 361.899 196.299, 349.327 196, 312.371 196 C 268.952 196, 262.957 196.185, 261.571 197.571 M 162.336 200.567 C 162.005 201.429, 162.196 202.596, 162.761 203.161 C 164.422 204.822, 167.474 203.663, 167.820 201.240 C 168.080 199.412, 167.660 199, 165.538 199 C 164.099 199, 162.669 199.700, 162.336 200.567 M 307.500 215.954 C 304.015 217.396, 300.853 221.671, 300.329 225.652 C 299.930 228.683, 300.372 230.305, 302.411 233.294 C 304.556 236.438, 305.003 238.239, 305.015 243.794 C 305.032 251.539, 306.575 255.361, 309.877 255.833 C 316.575 256.791, 318.983 253.306, 319.022 242.601 C 319.039 238.090, 319.554 235.849, 321 234 C 323.419 230.908, 323.658 223.385, 321.439 220.217 C 318.398 215.875, 312.242 213.993, 307.500 215.954 M 233.424 217.338 C 233.141 218.075, 233.043 222.237, 233.205 226.588 C 233.492 234.282, 233.569 234.500, 236 234.500 C 238.445 234.500, 238.506 234.316, 238.793 226.086 C 239.004 220.029, 238.724 217.441, 237.793 216.851 C 235.860 215.625, 234.002 215.832, 233.424 217.338 M 307.455 222.455 C 304.362 225.547, 304.371 227.099, 307.500 230.818 C 309.588 233.299, 310.002 234.836, 310.014 240.144 C 310.021 243.640, 310.297 247.507, 310.627 248.739 C 311.778 253.032, 313 249.828, 313 242.518 C 313 236.121, 313.329 234.763, 315.500 232.182 C 318.695 228.385, 318.818 223.686, 315.777 221.557 C 312.645 219.363, 310.292 219.617, 307.455 222.455 M 130 296.500 L 130 369 165.500 369 L 201 369 201 353.227 L 201 337.453 193.250 329.863 C 184.334 321.132, 182.056 319.818, 182.811 323.841 C 183.085 325.304, 183.963 327.508, 184.763 328.740 C 185.880 330.462, 186.133 333.623, 185.854 342.414 C 185.525 352.763, 185.268 354.086, 183.146 356.344 C 179.339 360.397, 176.011 361.222, 164.978 360.846 C 154.961 360.504, 154.796 360.459, 151.916 357.234 L 149 353.968 149 336.435 C 149 317.790, 149.424 315.728, 154.169 311.298 C 155.466 310.086, 158.209 308.393, 160.264 307.534 C 162.319 306.676, 164 305.529, 164 304.987 C 164 303.553, 169.220 303.778, 171.527 305.310 C 172.612 306.031, 175.407 307.226, 177.737 307.966 C 180.067 308.706, 182.604 310.273, 183.374 311.448 C 184.144 312.623, 188.424 316.875, 192.887 320.898 L 201 328.212 201 276.106 L 201 224 165.500 224 L 130 224 130 296.500 M 178 226.956 C 178 228.689, 177.180 228.946, 170.830 229.206 C 163.868 229.491, 162.247 230.280, 163.766 232.640 C 164.470 233.733, 177.472 234.544, 188.250 234.166 C 192.606 234.014, 193 233.792, 193 231.500 C 193 229.175, 192.659 229, 188.117 229 C 184.074 229, 183.143 228.656, 182.710 227 C 182.006 224.307, 178 224.270, 178 226.956 M 397.557 241.272 C 394.707 245.623, 398.055 250.069, 403 248.500 C 405.192 247.804, 405.529 245.522, 404.025 241.565 C 402.799 238.341, 399.573 238.195, 397.557 241.272 M 408.354 240.519 C 407.505 242.733, 408.892 247.202, 410.287 246.744 C 412.207 246.114, 412.393 240.365, 410.516 239.645 C 409.582 239.286, 408.689 239.647, 408.354 240.519 M 102.321 241.189 C 95.621 244.428, 98.396 255, 105.947 255 C 109.348 255, 113 251.117, 113 247.500 C 113 245.067, 112.276 243.576, 110.365 242.073 C 107.472 239.797, 105.621 239.593, 102.321 241.189 M 104.654 246.460 C 104.281 247.431, 104.643 248.309, 105.560 248.661 C 107.836 249.535, 108.600 248.171, 106.827 246.399 C 105.422 244.994, 105.214 245, 104.654 246.460 M 164.742 257.988 C 160.016 261.706, 152 269.812, 152 270.874 C 152 271.455, 152.815 272.366, 153.810 272.898 C 155.302 273.697, 156.884 272.621, 162.810 266.776 C 166.765 262.876, 170 259.361, 170 258.965 C 170 258.569, 169.389 257.737, 168.641 257.117 C 167.604 256.257, 166.682 256.463, 164.742 257.988 M 179.394 278.416 C 178.230 281.449, 179.450 285.493, 181.623 285.803 C 184.167 286.166, 184.901 284.617, 184.254 280.250 C 183.903 277.880, 183.253 277, 181.855 277 C 180.800 277, 179.693 277.637, 179.394 278.416 M 273.246 288.154 C 271.217 290.183, 271.751 294.712, 274.223 296.443 C 277.246 298.561, 280.329 298.399, 282.492 296.009 C 283.942 294.406, 284.113 293.381, 283.365 290.759 C 282.540 287.864, 281.993 287.467, 278.463 287.204 C 276.240 287.039, 273.943 287.457, 273.246 288.154 M 146.362 293.500 C 145.569 295.564, 146.644 298, 148.346 298 C 150.393 298, 152.135 295.514, 151.410 293.627 C 150.626 291.584, 147.131 291.496, 146.362 293.500 M 305.040 296.452 C 304.374 297.254, 304.132 298.841, 304.499 299.998 C 305.094 301.870, 305.815 302.060, 311.332 301.796 C 316.972 301.525, 317.529 301.296, 317.837 299.113 C 318.023 297.800, 317.573 296.345, 316.837 295.878 C 314.595 294.457, 306.363 294.857, 305.040 296.452 M 355 306.313 C 355 306.485, 356.462 307.948, 358.250 309.563 L 361.500 312.500 358.563 309.250 C 355.825 306.221, 355 305.540, 355 306.313 M 164 312.969 C 164 313.501, 163.399 313.707, 162.665 313.425 C 161.930 313.143, 160.243 313.817, 158.915 314.923 C 157.414 316.173, 157.026 316.946, 157.890 316.967 C 158.654 316.985, 159.877 316.212, 160.608 315.250 C 161.852 313.611, 161.938 313.609, 161.968 315.219 C 162.012 317.587, 164.541 316.446, 164.727 313.974 C 164.809 312.888, 164.679 312, 164.438 312 C 164.197 312, 164 312.436, 164 312.969 M 342 314 C 340.075 315.054, 338.860 315.935, 339.300 315.958 C 340.359 316.014, 346 313.081, 346 312.474 C 346 311.820, 345.941 311.842, 342 314 M 241.139 315.033 C 238.039 317.616, 239.439 317.587, 242.727 315 C 244.126 313.900, 244.872 313.015, 244.385 313.033 C 243.898 313.052, 242.438 313.952, 241.139 315.033 M 237.667 318.667 C 237.300 319.033, 237.029 320.271, 237.063 321.417 C 237.122 323.332, 237.204 323.307, 238.085 321.105 C 239.064 318.657, 238.861 317.472, 237.667 318.667 M 316.185 323.750 L 316.370 329.500 316.736 324.298 L 317.101 319.097 322.801 318.737 L 328.500 318.378 322.250 318.189 L 316 318 316.185 323.750 M 377.250 318.689 C 378.212 318.941, 379.788 318.941, 380.750 318.689 C 381.712 318.438, 380.925 318.232, 379 318.232 C 377.075 318.232, 376.288 318.438, 377.250 318.689 M 366.355 336.750 C 363.745 340.462, 359.935 345.884, 357.887 348.797 L 354.165 354.095 346.953 343.499 C 342.101 336.372, 339.214 333.005, 338.132 333.213 C 334.975 333.821, 336.041 336.718, 343.587 348.031 C 355.173 365.400, 353.252 365.023, 362.726 351.792 C 372.854 337.646, 375.359 333.377, 374.635 331.492 C 373.502 328.540, 371.019 330.117, 366.355 336.750 M 162.577 333.765 C 163.170 334.169, 163.770 337.200, 163.911 340.500 C 164.273 348.961, 165 348.738, 165 340.167 C 165 334.002, 164.755 333.002, 163.250 333.015 C 162.191 333.025, 161.926 333.321, 162.577 333.765 M 170.355 341.500 C 170.352 346.450, 170.521 348.601, 170.731 346.280 C 170.940 343.959, 170.943 339.909, 170.736 337.280 C 170.530 334.651, 170.358 336.550, 170.355 341.500 M 245.634 333.765 C 246.258 334.169, 246.993 335.400, 247.268 336.500 C 247.651 338.033, 247.795 337.858, 247.884 335.750 C 247.968 333.748, 247.524 333.004, 246.250 333.015 C 245.139 333.025, 244.914 333.299, 245.634 333.765 M 253.349 341 C 253.349 345.675, 253.522 347.587, 253.732 345.250 C 253.943 342.913, 253.943 339.087, 253.732 336.750 C 253.522 334.413, 253.349 336.325, 253.349 341 M 247.252 344.500 C 247.263 346.700, 247.468 347.482, 247.707 346.238 C 247.946 344.994, 247.937 343.194, 247.687 342.238 C 247.437 341.282, 247.241 342.300, 247.252 344.500 M 164.712 353.308 C 164.378 354.179, 164.778 355.085, 165.645 355.417 C 167.902 356.283, 169 356.128, 169 354.941 C 169 354.359, 168.578 354.143, 168.061 354.462 C 167.545 354.781, 166.712 354.308, 166.210 353.412 C 165.409 351.979, 165.227 351.967, 164.712 353.308 M 369.453 374.250 L 365.500 378.500 369.750 374.547 C 373.702 370.871, 374.460 370, 373.703 370 C 373.540 370, 371.627 371.913, 369.453 374.250 M 334 371.313 C 334 371.485, 335.462 372.948, 337.250 374.563 L 340.500 377.500 337.563 374.250 C 334.825 371.221, 334 370.540, 334 371.313 M 361.500 380.625 C 359.702 382.155, 359.334 382.763, 360.582 382.143 C 362.415 381.233, 365.853 377.941, 364.872 378.036 C 364.668 378.056, 363.150 379.221, 361.500 380.625 M 189.170 413.606 L 189.500 416.500 270.141 416.756 C 344.749 416.993, 350.830 416.887, 351.424 415.339 C 351.777 414.418, 351.626 413.226, 351.089 412.689 C 350.479 412.079, 319.888 411.526, 269.476 411.213 L 188.839 410.712 189.170 413.606" stroke="none" fill="#2f5e88" fill-rule="evenodd"/><path d="M 0 256.002 L 0 512.004 256.250 511.752 L 512.500 511.500 512.752 255.750 L 513.004 0 256.502 0 L 0 0 0 256.002 M 0.492 256.500 C 0.492 397.300, 0.608 454.751, 0.750 384.170 C 0.892 313.588, 0.892 198.388, 0.750 128.170 C 0.608 57.951, 0.492 115.700, 0.492 256.500 M 303.500 113.962 C 285.811 117.759, 272.949 128.872, 266.827 145.649 C 264.995 150.669, 264.628 154.304, 264.241 171.250 C 263.865 187.772, 263.551 191, 262.319 191 C 261.509 191, 259.531 192.315, 257.923 193.923 L 255 196.846 255 232.023 L 255 267.200 258.400 270.600 L 261.800 274 312.477 274 L 363.154 274 366.077 271.077 L 369 268.154 369 232.654 L 369 197.153 366.411 194.077 C 364.987 192.385, 362.962 191, 361.911 191 C 360.101 191, 360 190.058, 360 173.210 C 360 160.667, 359.560 153.731, 358.508 149.693 C 354.367 133.793, 342.898 121.298, 327.621 116.042 C 320.949 113.746, 309.218 112.735, 303.500 113.962 M 125.168 117.232 C 124.290 118.110, 124 149.677, 124 244.618 C 124 314.038, 124.273 371.548, 124.607 372.418 C 125.155 373.846, 134.851 374, 224.101 374 L 322.987 374 329.744 380.812 C 333.460 384.559, 338.919 389.172, 341.876 391.062 L 347.252 394.500 230.626 394.754 L 114 395.008 114 397.504 L 114 400 254 400 L 394 400 394 397.500 L 394 395 377.934 395 L 361.869 395 369.184 389.182 C 391.171 371.695, 402.183 348.603, 402.413 319.500 L 402.500 308.500 388 307.970 C 377.355 307.581, 372.702 307.010, 370.498 305.822 C 367.096 303.990, 364.199 301.039, 362.566 297.743 C 361.056 294.697, 355 293.938, 355 296.796 C 355 299.720, 362.157 307.223, 367.959 310.381 C 372.567 312.889, 374.439 313.255, 385.206 313.751 L 397.283 314.307 396.687 324.904 C 395.474 346.466, 387.492 364.441, 372.821 378.655 C 366.464 384.812, 356.328 392, 354 392 C 351.672 392, 341.536 384.812, 335.179 378.655 C 320.318 364.258, 312.648 346.575, 311.313 323.635 L 310.681 312.770 314.648 313.441 C 320.863 314.490, 334.251 312.413, 339.980 309.510 C 344.881 307.027, 351 300.257, 351 297.319 C 351 296.559, 350.256 295.652, 349.347 295.303 C 348.197 294.862, 346.598 295.942, 344.097 298.850 C 342.119 301.149, 340.143 303.024, 339.706 303.015 C 339.270 303.007, 339.045 299.738, 339.206 295.750 L 339.500 288.500 359.750 288.229 L 380 287.959 380 246.300 L 380 204.642 390.060 187.251 C 395.593 177.685, 399.975 169.108, 399.798 168.191 C 399.622 167.274, 398.760 166.385, 397.884 166.216 C 396.427 165.936, 391.850 173.145, 377.333 198.588 L 375 202.676 375 242.817 L 375 282.959 354.750 283.229 L 334.500 283.500 334.214 294.486 C 334.056 300.529, 333.477 305.923, 332.926 306.474 C 332.375 307.025, 326.204 307.706, 319.212 307.988 L 306.500 308.500 306.190 317.500 C 305.633 333.641, 309.329 350.511, 316.100 362.735 C 317.695 365.614, 319 368.202, 319 368.485 C 319 368.768, 313.150 369, 306 369 L 293 369 293 357.918 L 293 346.837 281 334.837 C 273.598 327.435, 269 322.064, 269 320.819 C 269 317.171, 265.919 312.216, 261.933 309.454 C 256.575 305.741, 246.385 305.386, 240.750 308.716 L 237 310.933 237 292.417 L 237 273.901 240.500 270.297 C 244.856 265.812, 244.917 263.526, 240.750 261.003 C 238.437 259.602, 237.356 258.092, 237 255.767 C 236.589 253.082, 236.055 252.500, 234 252.500 C 231.752 252.500, 231.468 252.953, 231.181 256.989 C 230.906 260.855, 231.232 261.773, 233.532 263.607 L 236.203 265.737 233.728 269.618 L 231.254 273.500 231.754 314.258 L 232.255 355.017 235.662 358.008 C 237.536 359.654, 240.291 361.045, 241.785 361.100 C 243.278 361.156, 247.200 361.326, 250.500 361.479 C 258.456 361.848, 262.270 360.595, 265.950 356.404 C 268.934 353.005, 269 352.705, 269 342.465 C 269 336.709, 269.370 332, 269.823 332 C 270.275 332, 274.325 335.770, 278.823 340.378 L 287 348.756 287 358.878 L 287 369 246.500 369 L 206 369 206 293.500 L 206 218 168 218 L 130 218 130 170 L 130 122 164.989 122 L 199.979 122 200.239 165.750 L 200.500 209.500 203 209.500 L 205.500 209.500 205.769 186.750 L 206.038 164 212.769 163.885 C 216.471 163.821, 219.950 163.665, 220.500 163.537 C 221.050 163.409, 228.588 163.236, 237.250 163.152 L 253 163 253 160.500 L 253 158 229.500 158 L 206 158 206 138.122 C 206 122.573, 205.704 117.999, 204.639 117.115 C 202.677 115.487, 126.802 115.598, 125.168 117.232 M 305.580 119.213 C 292.350 120.906, 280.097 129.968, 273.827 142.694 L 270.500 149.447 270.178 170.224 L 269.855 191 277.428 191 L 285 191 285 174.182 C 285 150.092, 287.371 143.944, 299.144 137.503 C 303.707 135.007, 305.611 134.570, 312 134.555 C 318.227 134.541, 320.374 134.996, 324.649 137.235 C 327.481 138.718, 331.206 141.634, 332.928 143.716 C 337.929 149.763, 339 155.143, 339 174.224 L 339 191.084 346.750 190.792 L 354.500 190.500 354.804 175 C 355.152 157.212, 354.092 150.106, 349.831 141.665 C 341.766 125.688, 324.283 116.818, 305.580 119.213 M 304.738 140.692 C 303.769 140.945, 303.203 141.520, 303.482 141.971 C 303.761 142.422, 303.293 143.057, 302.442 143.384 C 301.480 143.753, 301.150 143.566, 301.569 142.889 C 302.942 140.667, 298.217 143.954, 295.646 147.009 C 291.770 151.615, 291.012 155.984, 291.006 173.750 L 291 190 312.599 190 L 334.198 190 333.819 172.750 C 333.481 157.358, 333.204 155.052, 331.248 151.345 C 327.381 144.013, 320.230 139.921, 311.628 140.116 C 308.808 140.180, 305.707 140.439, 304.738 140.692 M 161.450 148.407 C 151.891 152.571, 149.097 165.485, 156.045 173.398 C 159.907 177.797, 163.935 179.380, 169.631 178.738 C 175.419 178.086, 178.868 175.596, 181.815 169.941 C 188.685 156.758, 175.147 142.441, 161.450 148.407 M 162.304 153.904 C 155.263 158.312, 156.035 168.890, 163.662 172.510 C 167.998 174.567, 171.303 173.851, 175.128 170.026 C 183.564 161.590, 172.417 147.575, 162.304 153.904 M 232.409 197.378 C 231.533 199.659, 232.299 202.159, 234.250 203.388 C 236.815 205.003, 239.500 202.959, 239.500 199.391 C 239.500 196.859, 239.096 196.461, 236.243 196.186 C 234.047 195.974, 232.798 196.363, 232.409 197.378 M 261.571 197.571 C 260.206 198.936, 260 203.470, 260 232.071 C 260 263.667, 260.081 265.081, 262 267 C 263.945 268.945, 265.333 269, 312.345 269 C 357.911 269, 360.785 268.895, 362.345 267.171 C 363.816 265.546, 364 261.613, 364 231.871 C 364 207.171, 363.686 198.086, 362.800 197.200 C 361.899 196.299, 349.327 196, 312.371 196 C 268.952 196, 262.957 196.185, 261.571 197.571 M 162.336 200.567 C 162.005 201.429, 162.196 202.596, 162.761 203.161 C 164.422 204.822, 167.474 203.663, 167.820 201.240 C 168.080 199.412, 167.660 199, 165.538 199 C 164.099 199, 162.669 199.700, 162.336 200.567 M 307.500 215.954 C 304.015 217.396, 300.853 221.671, 300.329 225.652 C 299.930 228.683, 300.372 230.305, 302.411 233.294 C 304.556 236.438, 305.003 238.239, 305.015 243.794 C 305.032 251.539, 306.575 255.361, 309.877 255.833 C 316.575 256.791, 318.983 253.306, 319.022 242.601 C 319.039 238.090, 319.554 235.849, 321 234 C 323.419 230.908, 323.658 223.385, 321.439 220.217 C 318.398 215.875, 312.242 213.993, 307.500 215.954 M 233.424 217.338 C 233.141 218.075, 233.043 222.237, 233.205 226.588 C 233.492 234.282, 233.569 234.500, 236 234.500 C 238.445 234.500, 238.506 234.316, 238.793 226.086 C 239.004 220.029, 238.724 217.441, 237.793 216.851 C 235.860 215.625, 234.002 215.832, 233.424 217.338 M 307.455 222.455 C 304.362 225.547, 304.371 227.099, 307.500 230.818 C 309.588 233.299, 310.002 234.836, 310.014 240.144 C 310.021 243.640, 310.297 247.507, 310.627 248.739 C 311.778 253.032, 313 249.828, 313 242.518 C 313 236.121, 313.329 234.763, 315.500 232.182 C 318.695 228.385, 318.818 223.686, 315.777 221.557 C 312.645 219.363, 310.292 219.617, 307.455 222.455 M 130 296.500 L 130 369 165.500 369 L 201 369 201 353.227 L 201 337.453 193.250 329.863 C 184.334 321.132, 182.056 319.818, 182.811 323.841 C 183.085 325.304, 183.963 327.508, 184.763 328.740 C 185.880 330.462, 186.133 333.623, 185.854 342.414 C 185.525 352.763, 185.268 354.086, 183.146 356.344 C 179.339 360.397, 176.011 361.222, 164.978 360.846 C 154.961 360.504, 154.796 360.459, 151.916 357.234 L 149 353.968 149 336.435 C 149 317.790, 149.424 315.728, 154.169 311.298 C 155.466 310.086, 158.209 308.393, 160.264 307.534 C 162.319 306.676, 164 305.529, 164 304.987 C 164 303.553, 169.220 303.778, 171.527 305.310 C 172.612 306.031, 175.407 307.226, 177.737 307.966 C 180.067 308.706, 182.604 310.273, 183.374 311.448 C 184.144 312.623, 188.424 316.875, 192.887 320.898 L 201 328.212 201 276.106 L 201 224 165.500 224 L 130 224 130 296.500 M 178 226.956 C 178 228.689, 177.180 228.946, 170.830 229.206 C 163.868 229.491, 162.247 230.280, 163.766 232.640 C 164.470 233.733, 177.472 234.544, 188.250 234.166 C 192.606 234.014, 193 233.792, 193 231.500 C 193 229.175, 192.659 229, 188.117 229 C 184.074 229, 183.143 228.656, 182.710 227 C 182.006 224.307, 178 224.270, 178 226.956 M 397.557 241.272 C 394.707 245.623, 398.055 250.069, 403 248.500 C 405.192 247.804, 405.529 245.522, 404.025 241.565 C 402.799 238.341, 399.573 238.195, 397.557 241.272 M 408.354 240.519 C 407.505 242.733, 408.892 247.202, 410.287 246.744 C 412.207 246.114, 412.393 240.365, 410.516 239.645 C 409.582 239.286, 408.689 239.647, 408.354 240.519 M 102.321 241.189 C 95.621 244.428, 98.396 255, 105.947 255 C 109.348 255, 113 251.117, 113 247.500 C 113 245.067, 112.276 243.576, 110.365 242.073 C 107.472 239.797, 105.621 239.593, 102.321 241.189 M 104.654 246.460 C 104.281 247.431, 104.643 248.309, 105.560 248.661 C 107.836 249.535, 108.600 248.171, 106.827 246.399 C 105.422 244.994, 105.214 245, 104.654 246.460 M 164.742 257.988 C 160.016 261.706, 152 269.812, 152 270.874 C 152 271.455, 152.815 272.366, 153.810 272.898 C 155.302 273.697, 156.884 272.621, 162.810 266.776 C 166.765 262.876, 170 259.361, 170 258.965 C 170 258.569, 169.389 257.737, 168.641 257.117 C 167.604 256.257, 166.682 256.463, 164.742 257.988 M 179.394 278.416 C 178.230 281.449, 179.450 285.493, 181.623 285.803 C 184.167 286.166, 184.901 284.617, 184.254 280.250 C 183.903 277.880, 183.253 277, 181.855 277 C 180.800 277, 179.693 277.637, 179.394 278.416 M 273.246 288.154 C 271.217 290.183, 271.751 294.712, 274.223 296.443 C 277.246 298.561, 280.329 298.399, 282.492 296.009 C 283.942 294.406, 284.113 293.381, 283.365 290.759 C 282.540 287.864, 281.993 287.467, 278.463 287.204 C 276.240 287.039, 273.943 287.457, 273.246 288.154 M 146.362 293.500 C 145.569 295.564, 146.644 298, 148.346 298 C 150.393 298, 152.135 295.514, 151.410 293.627 C 150.626 291.584, 147.131 291.496, 146.362 293.500 M 305.040 296.452 C 304.374 297.254, 304.132 298.841, 304.499 299.998 C 305.094 301.870, 305.815 302.060, 311.332 301.796 C 316.972 301.525, 317.529 301.296, 317.837 299.113 C 318.023 297.800, 317.573 296.345, 316.837 295.878 C 314.595 294.457, 306.363 294.857, 305.040 296.452 M 355 306.313 C 355 306.485, 356.462 307.948, 358.250 309.563 L 361.500 312.500 358.563 309.250 C 355.825 306.221, 355 305.540, 355 306.313 M 164 312.969 C 164 313.501, 163.399 313.707, 162.665 313.425 C 161.930 313.143, 160.243 313.817, 158.915 314.923 C 157.414 316.173, 157.026 316.946, 157.890 316.967 C 158.654 316.985, 159.877 316.212, 160.608 315.250 C 161.852 313.611, 161.938 313.609, 161.968 315.219 C 162.012 317.587, 164.541 316.446, 164.727 313.974 C 164.809 312.888, 164.679 312, 164.438 312 C 164.197 312, 164 312.436, 164 312.969 M 342 314 C 340.075 315.054, 338.860 315.935, 339.300 315.958 C 340.359 316.014, 346 313.081, 346 312.474 C 346 311.820, 345.941 311.842, 342 314 M 241.139 315.033 C 238.039 317.616, 239.439 317.587, 242.727 315 C 244.126 313.900, 244.872 313.015, 244.385 313.033 C 243.898 313.052, 242.438 313.952, 241.139 315.033 M 237.667 318.667 C 237.300 319.033, 237.029 320.271, 237.063 321.417 C 237.122 323.332, 237.204 323.307, 238.085 321.105 C 239.064 318.657, 238.861 317.472, 237.667 318.667 M 316.185 323.750 L 316.370 329.500 316.736 324.298 L 317.101 319.097 322.801 318.737 L 328.500 318.378 322.250 318.189 L 316 318 316.185 323.750 M 377.250 318.689 C 378.212 318.941, 379.788 318.941, 380.750 318.689 C 381.712 318.438, 380.925 318.232, 379 318.232 C 377.075 318.232, 376.288 318.438, 377.250 318.689 M 366.355 336.750 C 363.745 340.462, 359.935 345.884, 357.887 348.797 L 354.165 354.095 346.953 343.499 C 342.101 336.372, 339.214 333.005, 338.132 333.213 C 334.975 333.821, 336.041 336.718, 343.587 348.031 C 355.173 365.400, 353.252 365.023, 362.726 351.792 C 372.854 337.646, 375.359 333.377, 374.635 331.492 C 373.502 328.540, 371.019 330.117, 366.355 336.750 M 162.577 333.765 C 163.170 334.169, 163.770 337.200, 163.911 340.500 C 164.273 348.961, 165 348.738, 165 340.167 C 165 334.002, 164.755 333.002, 163.250 333.015 C 162.191 333.025, 161.926 333.321, 162.577 333.765 M 170.355 341.500 C 170.352 346.450, 170.521 348.601, 170.731 346.280 C 170.940 343.959, 170.943 339.909, 170.736 337.280 C 170.530 334.651, 170.358 336.550, 170.355 341.500 M 245.634 333.765 C 246.258 334.169, 246.993 335.400, 247.268 336.500 C 247.651 338.033, 247.795 337.858, 247.884 335.750 C 247.968 333.748, 247.524 333.004, 246.250 333.015 C 245.139 333.025, 244.914 333.299, 245.634 333.765 M 253.349 341 C 253.349 345.675, 253.522 347.587, 253.732 345.250 C 253.943 342.913, 253.943 339.087, 253.732 336.750 C 253.522 334.413, 253.349 336.325, 253.349 341 M 247.252 344.500 C 247.263 346.700, 247.468 347.482, 247.707 346.238 C 247.946 344.994, 247.937 343.194, 247.687 342.238 C 247.437 341.282, 247.241 342.300, 247.252 344.500 M 164.712 353.308 C 164.378 354.179, 164.778 355.085, 165.645 355.417 C 167.902 356.283, 169 356.128, 169 354.941 C 169 354.359, 168.578 354.143, 168.061 354.462 C 167.545 354.781, 166.712 354.308, 166.210 353.412 C 165.409 351.979, 165.227 351.967, 164.712 353.308 M 369.453 374.250 L 365.500 378.500 369.750 374.547 C 373.702 370.871, 374.460 370, 373.703 370 C 373.540 370, 371.627 371.913, 369.453 374.250 M 334 371.313 C 334 371.485, 335.462 372.948, 337.250 374.563 L 340.500 377.500 337.563 374.250 C 334.825 371.221, 334 370.540, 334 371.313 M 361.500 380.625 C 359.702 382.155, 359.334 382.763, 360.582 382.143 C 362.415 381.233, 365.853 377.941, 364.872 378.036 C 364.668 378.056, 363.150 379.221, 361.500 380.625 M 189.170 413.606 L 189.500 416.500 270.141 416.756 C 344.749 416.993, 350.830 416.887, 351.424 415.339 C 351.777 414.418, 351.626 413.226, 351.089 412.689 C 350.479 412.079, 319.888 411.526, 269.476 411.213 L 188.839 410.712 189.170 413.606" stroke="none" fill="#d2d2d3" fill-rule="evenodd"/></svg>